<svg width="128" height="128" viewBox="0 0 128 128" fill="none" xmlns="http://www.w3.org/2000/svg">
<g clip-path="url(#clip0_331_50)">
<rect width="128" height="128" fill="#19BDD2"/>
<path d="M60.25 1.75H17.25C11.3375 1.75 6.55375 6.5875 6.55375 12.5L6.5 98.5C6.5 104.413 11.2837 109.25 17.1962 109.25H81.75C87.6625 109.25 92.5 104.413 92.5 98.5V34L60.25 1.75ZM71 87.75H28V77H71V87.75ZM71 66.25H28V55.5H71V66.25ZM54.875 39.375V9.8125L84.4375 39.375H54.875Z" fill="white"/>
<path d="M76.5479 64H116.12L100.602 69.4056H76.5479V64Z" fill="#E32929"/>
<path d="M76.5479 109.947H90.5147V115.353H76.5479V109.947Z" fill="#E32929"/>
<rect x="76.5479" y="64" width="3.87965" height="51.353" fill="#E32929"/>
<path d="M92.8424 73.0093L120 64V114.903L92.8424 124.362V73.0093Z" fill="#E32929"/>
<rect x="56.3779" y="104.544" width="14.0756" height="16.0305" rx="5" transform="rotate(24.2936 56.3779 104.544)" fill="#4F4F4F"/>
<circle cx="61.2422" cy="122.971" r="2" transform="rotate(9.29362 61.2422 122.971)" fill="#F2F2F2" stroke="#4F4F4F" stroke-width="1.86481"/>
<rect x="64.9468" y="108.806" width="8.99272" height="1.17296" transform="rotate(-65.7064 64.9468 108.806)" fill="#4F4F4F"/>
<circle cx="84.8192" cy="80.7757" r="4.49636" fill="#4F4F4F"/>
<path d="M68.7887 101.107L68.2023 100.325L68.7887 96.8062L70.3527 93.6783L71.7211 91.3324L73.0896 89.3775L76.022 86.836L78.9544 85.4676L81.1048 85.2721L82.4733 85.8586L83.0598 87.227L83.4508 89.182L83.0598 90.9414L82.2778 94.6558L82.0823 98.5657V100.716L82.2778 101.694L82.6688 102.476L84.0373 105.408L85.7967 108.34L87.3606 113.619L88.3381 119.484L88.5336 121.438V122.611L87.9471 123.589L86.9697 124.566H85.4057L84.2327 123.98L83.2553 122.22L82.6688 117.724L81.4958 112.837L79.5409 117.724L77.195 120.656L75.0445 123.002L73.4806 124.566H71.9166L70.5482 123.98L69.9617 123.002L69.7662 121.438L70.3527 120.07L73.0896 117.529L75.0445 114.401L76.413 110.686L76.6085 106.776L76.413 104.235L75.0445 102.671L74.4581 101.107L74.0671 97.3927L74.4581 93.6783L73.0896 95.8288L71.1347 101.107L70.3527 101.498H69.3752L68.7887 101.107Z" fill="#4F4F4F"/>
<path d="M82.9138 91.3723L82.922 91.4082L82.9354 91.4426L83.591 93.1215L83.6222 93.2015L83.6783 93.2664L84.8836 94.6624L84.9208 94.7055L84.9667 94.7391L86.3054 95.7188L86.3341 95.7398L86.3654 95.7565L88.0904 96.6763L88.1856 96.7271L88.2932 96.7341L90.0513 96.8486L90.9009 97.0447L91.3806 97.5133L91.6311 99.1309L91.4403 99.5423L91.0734 99.8784L90.1531 100.182L87.5029 99.8499L85.0725 98.8948L83.8385 98.1532L82.7429 97.1876L81.1564 95.5328L80.0845 93.4504L79.5818 91.4335L79.2494 89.2873L79.6918 88.3336L80.3869 88.0791L81.1543 87.9603L81.586 88.1606L82.3365 88.8492L82.9138 91.3723Z" fill="#4F4F4F" stroke="white"/>
</g>
<defs>
<clipPath id="clip0_331_50">
<rect width="128" height="128" fill="white"/>
</clipPath>
</defs>
</svg>
