<svg width="128" height="128" viewBox="0 0 128 128" fill="none" xmlns="http://www.w3.org/2000/svg">
<g clip-path="url(#clip0_206_10)">
<path d="M60.25 1.75H17.25C11.3375 1.75 6.55375 6.5875 6.55375 12.5L6.5 98.5C6.5 104.413 11.2837 109.25 17.1962 109.25H81.75C87.6625 109.25 92.5 104.413 92.5 98.5V34L60.25 1.75ZM71 87.75H28V77H71V87.75ZM71 66.25H28V55.5H71V66.25ZM54.875 39.375V9.8125L84.4375 39.375H54.875Z" fill="#4F4F4F"/>
<circle cx="93.5" cy="95.5" r="33.5" fill="#FEFFFD"/>
<circle cx="93.5" cy="95.4999" r="29.1304" fill="#C20046"/>
<path d="M99 109.75C99 113.196 96.3084 116 93 116C89.6916 116 87 113.196 87 109.75C87 106.304 89.6916 103.5 93 103.5C96.3084 103.5 99 106.304 99 109.75ZM87.6945 77.9687L88.7145 99.2187C88.7624 100.217 89.5531 101 90.5123 101H95.4878C96.4469 101 97.2376 100.217 97.2855 99.2187L98.3055 77.9687C98.3569 76.8977 97.5372 76 96.5078 76H89.4923C88.4628 76 87.6431 76.8977 87.6945 77.9687Z" fill="white"/>
</g>
<defs>
<clipPath id="clip0_206_10">
<rect width="128" height="128" fill="white"/>
</clipPath>
</defs>
</svg>
