<svg width="128" height="128" viewBox="0 0 128 128" fill="none" xmlns="http://www.w3.org/2000/svg">
<g clip-path="url(#clip0_331_27)">
<path d="M60.25 1.75H17.25C11.3375 1.75 6.55375 6.5875 6.55375 12.5L6.5 98.5C6.5 104.413 11.2837 109.25 17.1962 109.25H81.75C87.6625 109.25 92.5 104.413 92.5 98.5V34L60.25 1.75ZM71 87.75H28V77H71V87.75ZM71 66.25H28V55.5H71V66.25ZM54.875 39.375V9.8125L84.4375 39.375H54.875Z" fill="#4F4F4F"/>
<path d="M70.5479 63.6312H110.12L94.6018 69.0368H70.5479V63.6312Z" fill="#E32929"/>
<path d="M70.5479 109.579H84.5147V114.984H70.5479V109.579Z" fill="#E32929"/>
<rect x="70.5479" y="63.6312" width="3.87965" height="51.353" fill="#E32929"/>
<path d="M86.8424 72.6405L114 63.6312V114.534L86.8424 123.994V72.6405Z" fill="#E32929"/>
<rect x="51.3779" y="104.176" width="14.0756" height="16.0305" rx="5" transform="rotate(24.2936 51.3779 104.176)" fill="#2F80ED"/>
<circle cx="56.2422" cy="122.602" r="2" transform="rotate(9.29362 56.2422 122.602)" fill="#F2F2F2" stroke="#2F80ED" stroke-width="1.86481"/>
<rect x="59.9468" y="108.437" width="8.99272" height="1.17296" transform="rotate(-65.7064 59.9468 108.437)" fill="#2F80ED"/>
<circle cx="79.8192" cy="80.4069" r="4.49636" fill="#2F80ED"/>
<path d="M63.7887 100.738L63.2023 99.9563L63.7887 96.4375L65.3527 93.3096L66.7211 90.9636L68.0896 89.0087L71.022 86.4673L73.9544 85.0988L76.1048 84.9033L77.4733 85.4898L78.0598 86.8583L78.4508 88.8132L78.0598 90.5726L77.2778 94.287L77.0823 98.1969V100.347L77.2778 101.325L77.6688 102.107L79.0373 105.039L80.7967 107.972L82.3606 113.25L83.3381 119.115L83.5336 121.07V122.243L82.9471 123.22L81.9697 124.198H80.4057L79.2327 123.611L78.2553 121.852L77.6688 117.355L76.4958 112.468L74.5409 117.355L72.195 120.288L70.0445 122.634L68.4806 124.198H66.9166L65.5482 123.611L64.9617 122.634L64.7662 121.07L65.3527 119.701L68.0896 117.16L70.0445 114.032L71.413 110.318L71.6085 106.408L71.413 103.866L70.0445 102.302L69.4581 100.738L69.0671 97.0239L69.4581 93.3096L68.0896 95.46L66.1347 100.738L65.3527 101.129H64.3752L63.7887 100.738Z" fill="#2F80ED"/>
<path d="M79.8836 94.2936L79.9208 94.3367L79.9668 94.3703L81.3054 95.35L81.3341 95.371L81.3654 95.3877L83.0904 96.3075L83.1856 96.3583L83.2932 96.3653L85.0513 96.4798L85.9009 96.676L86.3806 97.1446L86.6311 98.7622L86.4403 99.1735L86.0734 99.5096L85.1531 99.8133L82.5029 99.4812L80.0725 98.526L78.8385 97.7845L77.743 96.8188L76.1564 95.164L75.0845 93.0816L74.5818 91.0648L74.2494 88.9185L74.6919 87.9649L75.3869 87.7104L76.1543 87.5915L76.586 87.7918L77.3365 88.4804L77.9138 91.0035L77.922 91.0395L77.9354 91.0739L78.591 92.7527L78.6222 92.8327L78.6783 92.8976L79.8836 94.2936Z" fill="#2F80ED" stroke="#4F4F4F"/>
</g>
<defs>
<clipPath id="clip0_331_27">
<rect width="128" height="128" fill="white"/>
</clipPath>
</defs>
</svg>
