<svg width="128" height="128" viewBox="0 0 128 128" fill="none" xmlns="http://www.w3.org/2000/svg">
<g id="ILP_Applications">
<g id="Clipboard_First">
<g id="Second_Bars">
<rect id="Rectangle 82" x="55.1992" y="70.2513" width="8.58608" height="4.00547" rx="2.00274" fill="#828282"/>
<rect id="Rectangle 84" x="55.1992" y="82.2677" width="8.58608" height="4.00547" rx="2.00274" fill="#828282"/>
<rect id="Rectangle 85" x="55.1992" y="94.2841" width="8.58608" height="4.00547" rx="2.00273" fill="#828282"/>
<rect id="Rectangle 86" x="55.1992" y="106.301" width="8.58608" height="4.00547" rx="2.00274" fill="#828282"/>
</g>
<g id="First_Bars">
<rect id="Rectangle 82_2" x="16.1715" y="70.2513" width="33.5638" height="4.00547" rx="2.00274" fill="#828282"/>
<rect id="Rectangle 84_2" x="16.1715" y="82.2677" width="33.5638" height="4.00547" rx="2.00274" fill="#828282"/>
<rect id="Rectangle 85_2" x="16.1715" y="94.2841" width="33.5638" height="4.00547" rx="2.00273" fill="#828282"/>
<rect id="Rectangle 86_2" x="16.1715" y="106.301" width="33.5638" height="4.00547" rx="2.00274" fill="#828282"/>
</g>
<path id="Vector" d="M66.322 50.6244H50.8241C49.2669 46.2104 45.1886 43.014 40.3686 43.014C35.5487 43.014 31.4703 46.2104 29.9131 50.6244H14.4153C10.3369 50.6244 7 54.0491 7 58.2348V119.118C7 123.304 10.3369 126.728 14.4153 126.728H66.322C70.4004 126.728 73.7373 123.304 73.7373 119.118V58.2348C73.7373 54.0491 70.4004 50.6244 66.322 50.6244ZM40.3686 50.6244C42.4078 50.6244 44.0763 52.3368 44.0763 54.4296C44.0763 56.5225 42.4078 58.2348 40.3686 58.2348C38.3294 58.2348 36.661 56.5225 36.661 54.4296C36.661 52.3368 38.3294 50.6244 40.3686 50.6244ZM70.0297 122.322H11.4882V55.0304H21.8305V62.2403H58.9068V55.0304H69.6394L70.0297 122.322Z" fill="#4F4F4F"/>
<path id="Clipboard Head" fill-rule="evenodd" clip-rule="evenodd" d="M29.8689 50.421C31.2453 45.561 35.7198 42 41.027 42C46.3343 42 50.8087 45.561 52.1852 50.421H60V62H21V50.421H29.8689ZM38.2785 51.1636C37.387 51.8361 36.8108 52.9035 36.8108 54.1052C36.8108 56.14 38.4625 57.7894 40.5 57.7894C42.5375 57.7894 44.1892 56.14 44.1892 54.1052C44.1892 52.2237 42.7768 50.6715 40.953 50.4485C40.0391 50.5312 39.1426 50.7948 38.2785 51.1636Z" fill="#2F80ED"/>
</g>
<g id="Clipboard_Second">
<g id="Second_Bars_2">
<rect id="Rectangle 82_3" x="74.8856" y="49.0298" width="8.58608" height="4.00547" rx="2.00274" fill="#828282"/>
<rect id="Rectangle 84_3" x="74.8856" y="61.0463" width="8.58608" height="4.00547" rx="2.00274" fill="#828282"/>
<rect id="Rectangle 85_3" x="74.8856" y="73.0625" width="8.58608" height="4.00547" rx="2.00273" fill="#828282"/>
<rect id="Rectangle 86_3" x="74.8856" y="85.079" width="8.58608" height="4.00547" rx="2.00274" fill="#828282"/>
</g>
<path id="Subtract" fill-rule="evenodd" clip-rule="evenodd" d="M70.5106 29.4029H86.0085C90.0869 29.4029 93.4237 32.8275 93.4237 37.0133V97.8964C93.4237 102.082 90.0869 105.507 86.0085 105.507H78.3302V101.101H89.7161L89.3258 33.8089H78.5932V41.0187H41.517V33.8089H31.1746V46.5566H26.6864V37.0133C26.6864 32.8275 30.0233 29.4029 34.1017 29.4029H49.5996C51.1568 24.9888 55.2352 21.7925 60.0551 21.7925C64.875 21.7925 68.9534 24.9888 70.5106 29.4029ZM63.7627 33.2081C63.7627 31.1152 62.0943 29.4029 60.0551 29.4029C58.0159 29.4029 56.3475 31.1152 56.3475 33.2081C56.3475 35.3009 58.0159 37.0133 60.0551 37.0133C62.0943 37.0133 63.7627 35.3009 63.7627 33.2081Z" fill="#4F4F4F"/>
<path id="Clipboard Head_2" fill-rule="evenodd" clip-rule="evenodd" d="M49.6415 29.4211C50.9826 24.561 55.3423 21 60.5135 21C65.6847 21 70.0444 24.561 71.3856 29.4211H79V41H41V29.4211H49.6415ZM57.8355 30.1636C56.9668 30.8361 56.4054 31.9035 56.4054 33.1053C56.4054 35.14 58.0148 36.7895 60 36.7895C61.9852 36.7895 63.5946 35.14 63.5946 33.1053C63.5946 31.2236 62.2183 29.6715 60.4412 29.4485C59.5508 29.5312 58.6774 29.7948 57.8355 30.1636Z" fill="#2F80ED"/>
</g>
<g id="Clipboard_Third">
<g id="Second_Bars_3">
<rect id="Rectangle 82_4" x="94.4619" y="28.2373" width="8.58608" height="4.00547" rx="2.00274" fill="#4F4F4F"/>
<rect id="Rectangle 84_4" x="94.4619" y="40.2538" width="8.58608" height="4.00547" rx="2.00274" fill="#4F4F4F"/>
<rect id="Rectangle 85_4" x="94.4619" y="52.27" width="8.58608" height="4.00547" rx="2.00273" fill="#4F4F4F"/>
<rect id="Rectangle 86_4" x="94.4619" y="64.2865" width="8.58608" height="4.00547" rx="2.00274" fill="#4F4F4F"/>
</g>
<path id="Subtract_2" fill-rule="evenodd" clip-rule="evenodd" d="M61 8.61035H53.678C49.5996 8.61035 46.2627 12.035 46.2627 16.2207V26H50.7509V13.0164H61V8.61035ZM98 20.2262H98.1695V13.0164H108.902L109.292 80.3083H97V84.7143H105.585C109.663 84.7143 113 81.2896 113 77.1039V16.2207C113 12.035 109.663 8.61035 105.585 8.61035H98V20.2262Z" fill="#4F4F4F"/>
<path id="Clipboard Head_3" fill-rule="evenodd" clip-rule="evenodd" d="M69.6415 8.42105C70.9826 3.56104 75.3423 0 80.5135 0C85.6847 0 90.0444 3.56104 91.3856 8.42105H99V20H61V8.42105H69.6415ZM77.8355 9.16357C76.9668 9.83608 76.4054 10.9035 76.4054 12.1053C76.4054 14.14 78.0148 15.7895 80 15.7895C81.9852 15.7895 83.5946 14.14 83.5946 12.1053C83.5946 10.2236 82.2183 8.67148 80.4412 8.44853C79.5508 8.5312 78.6774 8.79482 77.8355 9.16357Z" fill="#2F80ED"/>
</g>
</g>
</svg>
