<svg width="128" height="128" viewBox="0 0 128 128" fill="none" xmlns="http://www.w3.org/2000/svg">
<g clip-path="url(#clip0_305_2)">
<path d="M60.25 1.75H17.25C11.3375 1.75 6.55375 6.5875 6.55375 12.5L6.5 98.5C6.5 104.413 11.2837 109.25 17.1962 109.25H81.75C87.6625 109.25 92.5 104.413 92.5 98.5V34L60.25 1.75ZM71 87.75H28V77H71V87.75ZM71 66.25H28V55.5H71V66.25ZM54.875 39.375V9.8125L84.4375 39.375H54.875Z" fill="#4F4F4F"/>
<path fill-rule="evenodd" clip-rule="evenodd" d="M73.9819 81.3975C75.2198 91.8728 83.2296 99.9565 92.9261 99.9565C102.623 99.9565 110.632 91.8728 111.87 81.3975H73.9819Z" fill="#B1A9A9"/>
<path fill-rule="evenodd" clip-rule="evenodd" d="M90.1304 65.1677C80.1069 66.3492 72.3913 73.6304 72.3913 82.4362H113.609C113.609 73.6304 105.893 66.3492 95.8696 65.1677V70.6045H90.1304V65.1677Z" fill="#FED557"/>
<rect x="91.1739" y="65.0001" width="3.65217" height="9.96353" fill="#D37B2C"/>
<rect x="71.3478" y="81.1907" width="43.3043" height="3.1136" rx="1.5568" fill="#D37B2C"/>
<path d="M84.1304 99.9565L79.4348 101.135L73.9565 102.903L69.7826 105.849L66.6522 109.09L64.5652 113.509L63 119.107V125H123V119.107L121.696 114.099L120.13 109.09L117.522 105.849L113.087 102.903L107.609 101.135L103.174 99.9565L102.13 102.608L100.826 105.26L99.2609 106.733L97.6957 107.617L93.7826 108.206L90.3913 107.617L88.3043 106.144L86.4783 104.376L85.1739 102.019L84.1304 99.9565Z" fill="#D37B2C"/>
<path d="M78.4477 101.17L81.2327 100.478V114.787H78.4477V101.17Z" fill="#FED557"/>
<path d="M106.297 100.706L109.082 101.454V114.787H106.297V100.706Z" fill="#FED557"/>
<rect x="111.867" y="115.922" width="2.78496" height="9.07796" fill="#FED557"/>
<rect x="73.4348" y="115.355" width="2.78496" height="9.64533" fill="#FED557"/>
<path d="M113.234 114.22C114.017 114.22 114.652 114.855 114.652 115.638V115.638C114.652 116.422 114.017 117.057 113.234 117.057L74.8532 117.057C74.0698 117.057 73.4348 116.422 73.4348 115.638V115.638C73.4348 114.855 74.0698 114.22 74.8532 114.22L113.234 114.22Z" fill="#FED557"/>
</g>
<defs>
<clipPath id="clip0_305_2">
<rect width="128" height="128" fill="white"/>
</clipPath>
</defs>
</svg>
