<svg width="128" height="128" viewBox="0 0 128 128" fill="none" xmlns="http://www.w3.org/2000/svg">
<g id="Leaving_Manipur">
<rect id="Frame" x="8" y="4" width="68" height="77" rx="3" fill="#EEEEEE" stroke="#4F4F4F" stroke-width="4"/>
<g id="Manipur">
<path id="Rectangle 124" d="M57.4935 59.617L60.0211 60.1787L63.1104 56.5277L67.0422 56.2469L70.6932 54.8427L71.5358 57.9319V59.8979L73.2208 61.5829L71.5358 65.7956L66.1997 76.7486L62.8296 75.6252L59.4594 75.3443L55.8085 74.221L54.1234 73.9401L53.2808 72.8167L54.6851 66.919L56.3701 63.8297L57.4935 59.617Z" fill="#C4C4C4"/>
<path id="Manipur_2" d="M72.7797 60.4175L72.6053 60.3257C72.233 60.1309 71.8474 59.9298 71.7929 59.7525C71.7792 59.7081 71.7528 59.5311 71.987 59.0957C72.0871 58.9016 72.172 58.6904 72.2771 58.4316C72.326 58.3111 72.3761 58.1878 72.43 58.065L72.4516 58.016C72.5771 57.729 72.4471 57.395 72.1609 57.2679L72.1128 57.2467C71.3181 56.8938 71.3977 56.6618 71.6351 55.9721C71.8012 55.488 72.0085 54.8851 71.6431 54.2727C71.54 54.1036 71.3257 54 71.1276 54C70.4448 54 69.8706 54.4614 69.315 54.9081C68.9423 55.208 68.5563 55.5177 68.2356 55.5969C67.5956 55.755 66.6121 55.9443 65.563 55.9443C64.9571 55.9443 64.4146 55.8798 63.9501 55.7528C63.6419 55.6682 63.3851 55.6274 63.1649 55.6274C62.7934 55.6274 61.9232 55.765 61.8682 57.0397C61.8557 57.3314 61.7413 57.431 61.3811 57.7017C61.1558 57.8708 60.9004 58.0625 60.6781 58.355C60.3813 58.7443 60.1853 59.0708 60.0416 59.3096C60.0153 59.3533 59.9869 59.4007 59.9593 59.445C59.7538 59.2971 59.4349 59.0325 59.1525 58.7978C59.0011 58.6708 58.7657 58.6415 58.578 58.7037C57.5748 59.0396 57.276 59.8673 57.036 60.5327C56.9113 60.8788 56.7933 61.2056 56.5932 61.4732C56.1618 62.0499 56.0328 62.7217 55.9188 63.3148C55.8304 63.7755 55.7539 64.1739 55.5643 64.4894C55.4809 64.6286 55.4218 64.649 55.2644 64.704C54.693 64.9028 54.3193 65.2504 54.3533 66.3002C54.3692 66.7964 54.2157 67.2067 54.0527 67.6443C53.8799 68.108 53.6837 68.6331 53.6837 69.2863C53.6837 70.0537 53.4862 70.8441 53.3144 71.3947L53.0172 72.497C52.9796 72.6358 53.0062 72.8025 53.0729 72.9296C53.1346 73.0464 53.1915 73.1904 53.2477 73.3334C53.4535 73.8575 53.7986 74.7344 54.9019 74.7344C54.9398 74.7344 54.9784 74.7332 55.0205 74.7307C55.1101 74.7254 55.1942 74.7215 55.2758 74.7215C55.4699 74.7215 55.6026 74.7478 55.749 74.8156C56.1493 75 57.1659 75.1618 57.5071 75.1838L57.5667 75.1875C57.5784 75.1882 57.5902 75.1887 57.6019 75.1887H57.6095C57.7789 75.1887 57.9314 75.1144 58.0357 74.9964C58.0626 75.0555 58.0853 75.1075 58.1024 75.1454C58.2067 75.382 58.2696 75.5211 58.3546 75.6334C58.6268 75.9947 59.0034 76.1858 59.4434 76.1858C59.8268 76.1858 60.1916 76.0443 60.5467 75.9072C60.8943 75.773 61.2542 75.635 61.5108 75.6892C61.6188 75.7119 61.8043 75.8256 61.9536 75.9179C62.2576 76.1044 62.6018 76.316 63.0121 76.316C63.1877 76.316 63.3556 76.2765 63.5126 76.198C63.6052 76.1513 63.6836 76.1298 63.7603 76.1298C64.0336 76.1298 64.3672 76.4505 64.6983 76.7679C64.8851 76.9477 65.0789 77.133 65.2912 77.2889C65.526 77.4614 65.7731 77.549 66.0263 77.549H66.0267C67.191 77.5484 67.6353 75.8456 67.9945 74.4688C68.074 74.1644 68.1559 73.8497 68.1987 73.7503C68.4834 73.1486 68.6784 72.5603 68.8668 71.9904C69.1402 71.1651 69.398 70.3855 69.9015 69.6593C70.0653 69.4227 70.236 69.1817 70.4099 68.9356L70.4448 68.8863C71.5829 67.2762 72.8732 65.4509 73.3638 63.548L73.4192 63.338C73.6309 62.5479 74.026 61.0784 72.7797 60.4174L72.7797 60.4175ZM72.3203 63.0412C72.2991 63.1197 72.279 63.1955 72.2612 63.2664C71.8233 64.9646 70.5967 66.6992 69.5112 68.2347L69.4801 68.2784C69.3037 68.5275 69.1313 68.7719 68.9655 69.0113C68.3696 69.8723 68.0862 70.7272 67.7865 71.6337C67.6086 72.1703 67.4256 72.725 67.1631 73.2796C67.0771 73.4764 66.9962 73.7872 66.8913 74.1895C66.7442 74.7521 66.3578 76.2335 66.022 76.4075C66.0106 76.4023 65.9908 76.392 65.9636 76.3718C65.8112 76.2596 65.6447 76.1003 65.4771 75.9395C65.0377 75.5176 64.4906 74.992 63.7596 74.992C63.503 74.992 63.2546 75.0538 63.0115 75.1779C62.9228 75.1779 62.688 75.0338 62.5485 74.9482C62.3119 74.803 62.0443 74.6384 61.7441 74.5763C61.6288 74.5521 61.5078 74.5391 61.3839 74.5391C60.9308 74.5391 60.5085 74.7021 60.1327 74.8473C59.8771 74.9463 59.6129 75.0482 59.4423 75.0482C59.3695 75.0482 59.3258 75.0338 59.2698 74.9602C59.2459 74.9216 59.1857 74.7854 59.1417 74.6857C58.8792 74.0934 58.5539 73.3568 57.9218 73.3568C57.7819 73.3568 57.6482 73.3959 57.5241 73.4721C57.3736 73.5647 57.2067 73.7228 57.1101 73.9881C56.7548 73.9297 56.3525 73.8417 56.2248 73.783C55.8423 73.6063 55.454 73.5672 54.9547 73.5953L54.9009 73.5972C54.6218 73.5972 54.5328 73.4951 54.3038 72.9135C54.264 72.812 54.2207 72.7023 54.1696 72.5882L54.405 71.7132C54.5946 71.1092 54.8202 70.1981 54.8202 69.2867C54.8202 68.8385 54.9642 68.4514 55.1183 68.04C55.3029 67.545 55.5126 66.9846 55.4894 66.2638C55.4788 65.9358 55.5209 65.8285 55.5142 65.826C55.5358 65.8138 55.5946 65.7938 55.6386 65.7783C55.8654 65.699 56.2448 65.5667 56.5394 65.075C56.8325 64.5867 56.9356 64.0495 57.0353 63.53C57.135 63.0117 57.2291 62.5219 57.5031 62.1553C57.8049 61.7523 57.9645 61.3098 58.1052 60.9194C58.288 60.414 58.4149 60.0944 58.7008 59.9015C59.367 60.4509 59.6862 60.6824 60.0608 60.6824C60.5423 60.6824 60.772 60.3005 61.0159 59.8953C61.1456 59.6795 61.3235 59.3842 61.5824 59.0438C61.7094 58.8769 61.8815 58.7478 62.064 58.6108C62.4666 58.3079 62.9675 57.9311 63.0038 57.089C63.014 56.8521 63.0595 56.7805 63.0577 56.7781C63.0729 56.772 63.3166 56.7592 63.6499 56.8502C64.2119 57.0041 64.8555 57.0819 65.5627 57.0819C66.7264 57.0819 67.8069 56.8753 68.5083 56.7016C69.0728 56.5621 69.5582 56.1723 70.0271 55.7951C70.2363 55.6266 70.4494 55.4557 70.65 55.3302C70.6237 55.4167 70.5924 55.5088 70.5601 55.6029C70.3528 56.2053 69.9838 57.2769 71.205 58.0506C71.1261 58.2462 71.0515 58.4301 70.9809 58.5666C70.6628 59.1577 70.5733 59.6551 70.706 60.0874C70.8998 60.7188 71.4992 61.0319 72.0773 61.3341L72.2483 61.4243C72.623 61.6221 72.5667 62.1245 72.3202 63.0412L72.3203 63.0412Z" fill="#828282"/>
</g>
<g id="Passenger">
<g id="Trolley">
<rect id="Rectangle 87" width="27.0771" height="30.5171" rx="5" transform="matrix(0.912478 0.406664 -0.416207 0.910397 57.2089 85.3854)" fill="#4F4F4F"/>
<path id="Ellipse 17" d="M70.1757 121.004C69.8563 122.931 68.002 124.277 65.9918 123.953C63.9816 123.628 62.6585 121.769 62.9779 119.842C63.2973 117.915 65.1516 116.569 67.1618 116.893C69.172 117.218 70.4951 119.078 70.1757 121.004Z" fill="#F2F2F2" stroke="#4F4F4F" stroke-width="4"/>
<rect id="Rectangle 88" width="17.1193" height="2.25643" transform="matrix(0.416207 -0.910397 0.912478 0.406664 73.7115 93.488)" fill="#4F4F4F"/>
</g>
<ellipse id="Head" cx="111.983" cy="40.1891" rx="8.6594" ry="8.54979" fill="#4F4F4F"/>
<path id="Body" d="M81.1105 78.8489L79.981 77.362L81.1105 70.6708L84.1225 64.7232L86.758 60.2624L89.3934 56.5451L95.0409 51.7126L100.688 49.1105L104.83 48.7388L107.465 49.854L108.595 52.4561L109.348 56.1734L108.595 59.5189L107.089 66.5818L106.712 74.0164V78.1054L107.089 79.9641L107.842 81.451L110.477 87.027L113.866 92.6029L116.878 102.64L118.76 113.792L119.137 117.509V119.739L118.007 121.598L116.125 123.456H113.113L110.854 122.341L108.971 118.996L107.842 110.446L105.583 101.153L101.818 110.446L97.2999 116.022L93.1584 120.483L90.1464 123.456H87.1345L84.499 122.341L83.3695 120.483L82.993 117.509L84.1225 114.907L89.3934 110.074L93.1584 104.127L95.7939 97.0637L96.1704 89.6291L95.7939 84.7966L93.1584 81.8227L92.0289 78.8489L91.2759 71.786L92.0289 64.7232L89.3934 68.8122L85.6285 78.8489L84.1225 79.5924H82.24L81.1105 78.8489Z" fill="#4F4F4F"/>
<path id="Hand" d="M112.455 66.2979L112.493 66.3407L112.539 66.3741L115.117 68.2369L115.146 68.2578L115.177 68.2744L118.499 70.0234L118.595 70.0738L118.703 70.0808L122.126 70.3009L123.925 70.7109L125.051 71.7967L125.578 75.1579L125.113 76.1471L124.266 76.9132L122.301 77.5533L117.037 76.9019L112.267 75.051L109.822 73.6001L107.666 71.7241L104.551 68.516L102.432 64.4507L101.445 60.5445L100.781 56.3073L101.772 54.1988L103.332 53.6348L104.992 53.3809L106.015 53.8492L107.618 55.3019L108.762 60.2373L108.77 60.273L108.783 60.3072L110.046 63.4996L110.078 63.579L110.134 63.6435L112.455 66.2979Z" fill="#4F4F4F" stroke="#F2F2F2"/>
</g>
</g>
</svg>
