<svg width="128" height="128" viewBox="0 0 128 128" fill="none" xmlns="http://www.w3.org/2000/svg">
<g id="Leaving_Manipur_Door">
<rect id="Frame" x="7" y="2" width="72" height="81" fill="#FEFEFE"/>
<g id="Manipur">
<path id="Rectangle 124" d="M46.5581 50.035L50.7965 50.9768L55.9767 44.8548L62.5698 44.3838L68.6919 42.0292L70.1047 47.2094V50.5059L72.9302 53.3315L70.1047 60.3955L61.157 78.7617L55.5058 76.878L49.8547 76.4071L43.7326 74.5234L40.907 74.0524L39.4942 72.1687L41.8488 62.2792L44.6744 57.0989L46.5581 50.035Z" fill="#C4C4C4"/>
<path id="Manipur_2" d="M72.1904 51.3773L71.8981 51.2235C71.2737 50.8968 70.6272 50.5597 70.5358 50.2622C70.5128 50.1879 70.4685 49.891 70.8613 49.161C71.0291 48.8355 71.1715 48.4813 71.3478 48.0473C71.4298 47.8453 71.5138 47.6386 71.6041 47.4326L71.6404 47.3506C71.8507 46.8692 71.6327 46.3092 71.1528 46.0961L71.0722 46.0606C69.7397 45.4688 69.8731 45.0797 70.2713 43.9231C70.5497 43.1114 70.8974 42.1004 70.2846 41.0736C70.1118 40.79 69.7525 40.6163 69.4202 40.6163C68.2752 40.6163 67.3125 41.39 66.3807 42.139C65.7558 42.642 65.1086 43.1613 64.5708 43.2941C63.4977 43.5592 61.8484 43.8765 60.0893 43.8765C59.0732 43.8765 58.1636 43.7684 57.3848 43.5555C56.8679 43.4136 56.4374 43.3452 56.0681 43.3452C55.4451 43.3452 53.986 43.576 53.8938 45.7134C53.8728 46.2025 53.6809 46.3696 53.0769 46.8234C52.6992 47.107 52.2709 47.4285 51.8982 47.919C51.4004 48.5717 51.0717 49.1193 50.8308 49.5197C50.7868 49.5929 50.7391 49.6724 50.6929 49.7467C50.3483 49.4987 49.8136 49.0551 49.3399 48.6614C49.0862 48.4485 48.6914 48.3994 48.3766 48.5036C46.6944 49.067 46.1935 50.4548 45.791 51.5705C45.5818 52.1509 45.384 52.699 45.0485 53.1477C44.3251 54.1147 44.1088 55.2411 43.9175 56.2357C43.7694 57.0082 43.6411 57.6763 43.3232 58.2054C43.1833 58.4386 43.0842 58.473 42.8203 58.5652C41.8621 58.8984 41.2355 59.4814 41.2925 61.2417C41.3192 62.0738 41.0618 62.7618 40.7884 63.4955C40.4987 64.2732 40.1697 65.1536 40.1697 66.2489C40.1697 67.5357 39.8385 68.8611 39.5504 69.7844L39.052 71.6327C38.989 71.8654 39.0336 72.145 39.1454 72.3581C39.249 72.5539 39.3444 72.7955 39.4386 73.0353C39.7837 73.914 40.3625 75.3845 42.2124 75.3845C42.276 75.3845 42.3407 75.3825 42.4114 75.3782C42.5615 75.3694 42.7025 75.3629 42.8393 75.3629C43.1649 75.3629 43.3874 75.4069 43.6329 75.5207C44.3042 75.8298 46.0088 76.1011 46.5809 76.138L46.6808 76.1443C46.7004 76.1454 46.7203 76.1463 46.7399 76.1463H46.7526C47.0368 76.1463 47.2925 76.0217 47.4673 75.8238C47.5124 75.9229 47.5505 76.01 47.5791 76.0736C47.754 76.4704 47.8595 76.7037 48.002 76.8919C48.4584 77.4978 49.0899 77.8183 49.8278 77.8183C50.4707 77.8183 51.0823 77.581 51.6778 77.3511C52.2607 77.126 52.8641 76.8947 53.2944 76.9855C53.4755 77.0236 53.7865 77.2143 54.0369 77.369C54.5466 77.6817 55.1239 78.0365 55.8119 78.0365C56.1063 78.0365 56.3878 77.9704 56.6512 77.8387C56.8064 77.7604 56.9379 77.7243 57.0664 77.7243C57.5248 77.7243 58.0842 78.2621 58.6393 78.7943C58.9527 79.0958 59.2776 79.4065 59.6336 79.6679C60.0272 79.9571 60.4416 80.1041 60.8662 80.1041H60.8668C62.8192 80.103 63.5642 77.2478 64.1665 74.9392C64.2998 74.4286 64.4372 73.901 64.509 73.7344C64.9864 72.7254 65.3133 71.7388 65.6293 70.7832C66.0876 69.3993 66.5199 68.0921 67.3643 66.8745C67.639 66.4777 67.9251 66.0735 68.2168 65.6609L68.2753 65.5783C70.1837 62.8783 72.3472 59.8176 73.17 56.6268L73.2628 56.2746C73.6179 54.9498 74.2803 52.4856 72.1906 51.3773L72.1904 51.3773ZM71.4201 55.7768C71.3847 55.9085 71.3509 56.0357 71.3211 56.1546C70.5869 59.0021 68.53 61.9108 66.7099 64.4855L66.6576 64.5588C66.3619 64.9766 66.0727 65.3864 65.7948 65.7877C64.7955 67.2315 64.3204 68.6651 63.8177 70.1852C63.5194 71.0849 63.2126 72.015 62.7724 72.945C62.6282 73.2751 62.4925 73.7962 62.3166 74.4708C62.07 75.4142 61.422 77.8982 60.8589 78.19C60.8399 78.1812 60.8067 78.1639 60.761 78.1301C60.5056 77.942 60.2263 77.6749 59.9453 77.4053C59.2085 76.6977 58.2912 75.8165 57.0653 75.8165C56.6351 75.8165 56.2184 75.9201 55.8108 76.1281C55.6621 76.1281 55.2685 75.8866 55.0346 75.743C54.6378 75.4994 54.189 75.2236 53.6856 75.1194C53.4923 75.0788 53.2894 75.057 53.0816 75.057C52.3218 75.057 51.6137 75.3303 50.9836 75.5738C50.5551 75.7398 50.112 75.9107 49.8259 75.9107C49.7039 75.9107 49.6306 75.8866 49.5367 75.7631C49.4967 75.6984 49.3956 75.4699 49.3218 75.3028C48.8816 74.3097 48.3362 73.0745 47.2764 73.0745C47.0417 73.0745 46.8174 73.1401 46.6094 73.2678C46.3571 73.423 46.0772 73.6881 45.9152 74.1331C45.3194 74.0352 44.6448 73.8876 44.4308 73.7891C43.7893 73.4928 43.1383 73.4273 42.301 73.4744L42.2108 73.4775C41.7428 73.4775 41.5935 73.3064 41.2095 72.3312C41.1428 72.1609 41.0701 71.977 40.9844 71.7857L41.3792 70.3184C41.6971 69.3057 42.0754 67.7779 42.0754 66.2495C42.0754 65.4979 42.3169 64.8489 42.5752 64.1592C42.8849 63.329 43.2365 62.3893 43.1976 61.1808C43.1797 60.6307 43.2504 60.4508 43.2391 60.4466C43.2754 60.4261 43.3739 60.3926 43.4477 60.3665C43.828 60.2337 44.4643 60.0117 44.9582 59.1873C45.4497 58.3684 45.6226 57.4676 45.7897 56.5966C45.9569 55.7275 46.1147 54.9061 46.5742 54.2914C47.0803 53.6156 47.3479 52.8737 47.5838 52.219C47.8903 51.3715 48.1032 50.8356 48.5825 50.5121C49.6997 51.4334 50.2349 51.8216 50.8631 51.8216C51.6705 51.8216 52.0557 51.1813 52.4646 50.5018C52.6821 50.14 52.9804 49.6447 53.4146 49.074C53.6274 48.7941 53.9161 48.5776 54.222 48.348C54.8972 47.8399 55.7371 47.2081 55.798 45.7961C55.8151 45.3988 55.8914 45.2787 55.8883 45.2748C55.9138 45.2645 56.3225 45.243 56.8814 45.3957C57.8237 45.6537 58.903 45.7842 60.0889 45.7842C62.0401 45.7842 63.852 45.4377 65.0281 45.1465C65.9747 44.9126 66.7886 44.259 67.5749 43.6263C67.9257 43.3439 68.283 43.0573 68.6193 42.8469C68.5753 42.992 68.5228 43.1464 68.4686 43.3042C68.1209 44.3143 67.5022 46.1112 69.55 47.4085C69.4177 47.7366 69.2926 48.0448 69.1742 48.2738C68.6409 49.2649 68.4908 50.0991 68.7133 50.824C69.0383 51.8826 70.0433 52.4077 71.0127 52.9143L71.2994 53.0656C71.9278 53.3974 71.8333 54.2398 71.42 55.7769L71.4201 55.7768Z" fill="#828282"/>
</g>
<g id="Door">
<g id="Inner_Door">
<path id="Rectangle 115" d="M85.131 51H121.44L107.201 57.1967H85.131V51Z" fill="#4F4F4F"/>
<path id="Rectangle 117" d="M85.131 103.672H97.9461V109.869H85.131V103.672Z" fill="#4F4F4F"/>
<rect id="Rectangle 116" x="85.131" y="51" width="3.55973" height="58.869" fill="#4F4F4F"/>
</g>
<path id="Outer_Door" d="M100.082 61.3279L125 51V109.353L100.082 120.197V61.3279Z" fill="#4F4F4F"/>
</g>
<g id="Passenger">
<g id="Trolley">
<rect id="Rectangle 87" width="15.966" height="19.0815" rx="5" transform="matrix(0.906402 0.433891 -0.38988 0.916008 46.7499 94.4778)" fill="#4F4F4F"/>
<g id="Ellipse 17">
<mask id="path-9-inside-1_351_16" fill="white">
<ellipse rx="3.3132" ry="3.5029" transform="matrix(0.985273 0.170988 -0.1525 0.988303 52.2369 116.521)"/>
</mask>
<ellipse rx="3.3132" ry="3.5029" transform="matrix(0.985273 0.170988 -0.1525 0.988303 52.2369 116.521)" fill="#F2F2F2"/>
<path d="M51.5602 116.403C51.5701 116.339 51.6134 116.24 51.7234 116.156C51.8376 116.069 52.0526 115.984 52.3127 116.029L51.0927 123.936C55.276 124.662 58.8429 121.656 59.4424 117.771L51.5602 116.403ZM52.3127 116.029C52.5728 116.074 52.7512 116.227 52.8333 116.348C52.9123 116.465 52.9235 116.574 52.9136 116.638L45.0314 115.27C44.4319 119.155 46.9093 123.21 51.0927 123.936L52.3127 116.029ZM52.9136 116.638C52.9036 116.702 52.8604 116.802 52.7504 116.885C52.6362 116.973 52.4211 117.057 52.1611 117.012L53.3811 109.105C49.1977 108.379 45.6309 111.385 45.0314 115.27L52.9136 116.638ZM52.1611 117.012C51.901 116.967 51.7226 116.814 51.6405 116.693C51.5614 116.576 51.5503 116.468 51.5602 116.403L59.4424 117.771C60.0419 113.886 57.5644 109.831 53.3811 109.105L52.1611 117.012Z" fill="#4F4F4F" mask="url(#path-9-inside-1_351_16)"/>
</g>
<rect id="Rectangle 88" width="10.7043" height="1.3305" transform="matrix(0.38988 -0.916008 0.906402 0.433891 56.4159 99.5752)" fill="#4F4F4F"/>
</g>
<ellipse id="Head" cx="78.8324" cy="66.0431" rx="5.072" ry="5.3789" fill="#4F4F4F"/>
<path id="Body" d="M60.7496 90.3651L60.088 89.4296L60.7496 85.22L62.5137 81.4782L64.0574 78.6718L65.601 76.3332L68.9089 73.2929L72.2167 71.6559L74.6424 71.422L76.1861 72.1236L76.8476 73.7606L77.2887 76.0993L76.8476 78.2041L75.9656 82.6475L75.745 87.3248V89.8973L75.9656 91.0667L76.4066 92.0021L77.9503 95.5101L79.9349 99.0181L81.6991 105.332L82.8017 112.348L83.0223 114.687V116.09L82.3607 117.26L81.2581 118.429H79.4939L78.1708 117.727L77.0682 115.622L76.4066 110.244L75.0835 104.397L72.8783 110.244L70.232 113.752L67.8063 116.558L66.0421 118.429H64.2779L62.7343 117.727L62.0727 116.558L61.8522 114.687L62.5137 113.05L65.601 110.01L67.8063 106.268L69.3499 101.824L69.5704 97.1472L69.3499 94.1069L67.8063 92.236L67.1447 90.3651L66.7036 85.9216L67.1447 81.4782L65.601 84.0507L63.3958 90.3651L62.5137 90.8328H61.4111L60.7496 90.3651Z" fill="#4F4F4F"/>
<path id="Hand" d="M78.9648 82.6007L79.001 82.6451L79.0457 82.6798L80.5557 83.8517L80.5836 83.8734L80.614 83.8906L82.5599 84.991L82.6523 85.0432L82.7568 85.0505L84.7463 85.1879L85.7324 85.4293L86.3078 86.0254L86.598 88.0129L86.3659 88.5435L85.9276 88.9692L84.8563 89.3442L81.8394 88.9432L79.0826 87.7942L77.679 86.8996L76.4354 85.7372L74.6355 83.7464L73.4171 81.236L72.8469 78.8102L72.4679 76.2139L72.9909 75.0182L73.8134 74.6988L74.7104 74.5515L75.2299 74.8071L76.1032 75.657L76.7599 78.7005L76.7679 78.7375L76.7809 78.773L77.5204 80.7814L77.5508 80.8638L77.6053 80.9307L78.9648 82.6007Z" fill="#4F4F4F" stroke="#F2F2F2"/>
</g>
</g>
</svg>
