<svg width="128" height="128" viewBox="0 0 128 128" fill="none" xmlns="http://www.w3.org/2000/svg">
<g id="Leaving_Manipur">
<rect id="Frame" x="7" y="2" width="72" height="81" fill="#FEFEFE"/>
<g id="Manipur">
<path id="Rectangle 124" d="M60.4935 62.1721L63.0211 62.7338L66.1104 59.0828L70.0422 58.8019L73.6932 57.3977L74.5358 60.487V62.4529L76.2208 64.138L74.5358 68.3507L69.1997 79.3036L65.8296 78.1802L62.4594 77.8994L58.8085 76.776L57.1234 76.4952L56.2808 75.3718L57.6851 69.474L59.3701 66.3847L60.4935 62.1721Z" fill="#C4C4C4"/>
<path id="Manipur_2" d="M75.7797 62.9725L75.6053 62.8808C75.233 62.686 74.8474 62.4849 74.7929 62.3075C74.7792 62.2632 74.7528 62.0861 74.987 61.6508C75.0871 61.4567 75.172 61.2454 75.2771 60.9866C75.326 60.8661 75.3761 60.7429 75.43 60.62L75.4516 60.5711C75.5771 60.284 75.4471 59.9501 75.1609 59.823L75.1128 59.8018C74.3181 59.4489 74.3977 59.2168 74.6351 58.5271C74.8012 58.043 75.0085 57.4401 74.6431 56.8277C74.54 56.6586 74.3257 56.5551 74.1276 56.5551C73.4448 56.5551 72.8706 57.0164 72.315 57.4631C71.9423 57.7631 71.5563 58.0728 71.2356 58.152C70.5956 58.3101 69.6121 58.4993 68.563 58.4993C67.9571 58.4993 67.4146 58.4348 66.9501 58.3079C66.6419 58.2233 66.3851 58.1825 66.1649 58.1825C65.7934 58.1825 64.9232 58.3201 64.8682 59.5948C64.8557 59.8864 64.7413 59.9861 64.3811 60.2567C64.1558 60.4258 63.9004 60.6176 63.6781 60.9101C63.3813 61.2994 63.1853 61.6259 63.0416 61.8647C63.0153 61.9083 62.9869 61.9557 62.9593 62.0001C62.7538 61.8521 62.4349 61.5876 62.1525 61.3528C62.0011 61.2259 61.7657 61.1966 61.578 61.2587C60.5748 61.5947 60.276 62.4223 60.036 63.0877C59.9113 63.4339 59.7933 63.7607 59.5932 64.0283C59.1618 64.605 59.0328 65.2767 58.9188 65.8698C58.8304 66.3306 58.7539 66.729 58.5643 67.0445C58.4809 67.1836 58.4218 67.2041 58.2644 67.2591C57.693 67.4578 57.3193 67.8054 57.3533 68.8552C57.3692 69.3515 57.2157 69.7618 57.0527 70.1993C56.8799 70.6631 56.6837 71.1881 56.6837 71.8413C56.6837 72.6088 56.4862 73.3992 56.3144 73.9498L56.0172 75.052C55.9796 75.1908 56.0062 75.3575 56.0729 75.4846C56.1346 75.6014 56.1915 75.7455 56.2477 75.8885C56.4535 76.4125 56.7986 77.2895 57.9019 77.2895C57.9398 77.2895 57.9784 77.2883 58.0205 77.2857C58.1101 77.2805 58.1942 77.2766 58.2758 77.2766C58.4699 77.2766 58.6026 77.3028 58.749 77.3707C59.1493 77.555 60.1659 77.7168 60.5071 77.7388L60.5667 77.7426C60.5784 77.7432 60.5902 77.7438 60.6019 77.7438H60.6095C60.7789 77.7438 60.9314 77.6694 61.0357 77.5515C61.0626 77.6105 61.0853 77.6625 61.1024 77.7004C61.2067 77.937 61.2696 78.0762 61.3546 78.1884C61.6268 78.5498 62.0034 78.7409 62.4434 78.7409C62.8268 78.7409 63.1916 78.5994 63.5467 78.4623C63.8943 78.328 64.2542 78.1901 64.5108 78.2443C64.6188 78.2669 64.8043 78.3807 64.9536 78.4729C65.2576 78.6595 65.6018 78.871 66.0121 78.871C66.1877 78.871 66.3556 78.8316 66.5126 78.7531C66.6052 78.7063 66.6836 78.6848 66.7603 78.6848C67.0336 78.6848 67.3672 79.0056 67.6983 79.323C67.8851 79.5027 68.0789 79.6881 68.2912 79.8439C68.526 80.0164 68.7731 80.1041 69.0263 80.1041H69.0267C70.191 80.1034 70.6353 78.4007 70.9945 77.0239C71.074 76.7194 71.1559 76.4048 71.1987 76.3054C71.4834 75.7037 71.6784 75.1153 71.8668 74.5454C72.1402 73.7201 72.398 72.9405 72.9015 72.2144C73.0653 71.9778 73.236 71.7368 73.4099 71.4907L73.4448 71.4414C74.5829 69.8312 75.8732 68.006 76.3638 66.1031L76.4192 65.893C76.6309 65.103 77.026 63.6335 75.7797 62.9725L75.7797 62.9725ZM75.3203 65.5962C75.2991 65.6747 75.279 65.7506 75.2612 65.8215C74.8233 67.5197 73.5967 69.2543 72.5112 70.7897L72.4801 70.8334C72.3037 71.0826 72.1313 71.327 71.9655 71.5663C71.3696 72.4273 71.0862 73.2823 70.7865 74.1888C70.6086 74.7254 70.4256 75.28 70.1631 75.8347C70.0771 76.0315 69.9962 76.3423 69.8913 76.7446C69.7442 77.3072 69.3578 78.7886 69.022 78.9626C69.0106 78.9573 68.9908 78.947 68.9636 78.9269C68.8112 78.8147 68.6447 78.6554 68.4771 78.4946C68.0377 78.0726 67.4906 77.5471 66.7596 77.5471C66.503 77.5471 66.2546 77.6089 66.0115 77.7329C65.9228 77.7329 65.688 77.5889 65.5485 77.5032C65.3119 77.358 65.0443 77.1935 64.7441 77.1314C64.6288 77.1072 64.5078 77.0941 64.3839 77.0941C63.9308 77.0941 63.5085 77.2571 63.1327 77.4024C62.8771 77.5014 62.6129 77.6033 62.4423 77.6033C62.3695 77.6033 62.3258 77.5889 62.2698 77.5153C62.2459 77.4767 62.1857 77.3404 62.1417 77.2407C61.8792 76.6485 61.5539 75.9119 60.9218 75.9119C60.7819 75.9119 60.6482 75.951 60.5241 76.0271C60.3736 76.1197 60.2067 76.2778 60.1101 76.5432C59.7548 76.4848 59.3525 76.3968 59.2248 76.3381C58.8423 76.1614 58.454 76.1222 57.9547 76.1503L57.9009 76.1522C57.6218 76.1522 57.5328 76.0501 57.3038 75.4686C57.264 75.367 57.2207 75.2574 57.1696 75.1433L57.405 74.2682C57.5946 73.6643 57.8202 72.7532 57.8202 71.8417C57.8202 71.3935 57.9642 71.0064 58.1183 70.5951C58.3029 70.1 58.5126 69.5396 58.4894 68.8189C58.4788 68.4909 58.5209 68.3836 58.5142 68.381C58.5358 68.3689 58.5946 68.3489 58.6386 68.3333C58.8654 68.2541 59.2448 68.1217 59.5394 67.6301C59.8325 67.1417 59.9356 66.6045 60.0353 66.0851C60.135 65.5668 60.2291 65.077 60.5031 64.7103C60.8049 64.3073 60.9645 63.8649 61.1052 63.4744C61.288 62.969 61.4149 62.6495 61.7008 62.4565C62.367 63.0059 62.6862 63.2374 63.0608 63.2374C63.5423 63.2374 63.772 62.8556 64.0159 62.4504C64.1456 62.2346 64.3235 61.9392 64.5824 61.5989C64.7094 61.432 64.8815 61.3028 65.064 61.1659C65.4666 60.8629 65.9675 60.4861 66.0038 59.6441C66.014 59.4071 66.0595 59.3355 66.0577 59.3332C66.0729 59.3271 66.3166 59.3142 66.6499 59.4053C67.2119 59.5591 67.8555 59.637 68.5627 59.637C69.7264 59.637 70.8069 59.4303 71.5083 59.2567C72.0728 59.1172 72.5582 58.7274 73.0271 58.3501C73.2363 58.1817 73.4494 58.0107 73.65 57.8853C73.6237 57.9718 73.5924 58.0639 73.5601 58.158C73.3528 58.7604 72.9838 59.832 74.205 60.6056C74.1261 60.8013 74.0515 60.9851 73.9809 61.1217C73.6628 61.7128 73.5733 62.2102 73.706 62.6425C73.8998 63.2738 74.4992 63.587 75.0773 63.8891L75.2483 63.9793C75.623 64.1772 75.5667 64.6795 75.3202 65.5962L75.3203 65.5962Z" fill="#828282"/>
</g>
<g id="Passenger">
<g id="Trolley">
<rect id="Rectangle 87" width="27.0771" height="30.5171" rx="5" transform="matrix(0.912478 0.406664 -0.416207 0.910397 53.2089 85.3854)" fill="#4F4F4F"/>
<path id="Ellipse 17" d="M66.1757 121.004C65.8563 122.931 64.002 124.277 61.9918 123.953C59.9816 123.628 58.6585 121.769 58.9779 119.842C59.2973 117.915 61.1516 116.569 63.1618 116.893C65.172 117.218 66.4951 119.078 66.1757 121.004Z" fill="#F2F2F2" stroke="#4F4F4F" stroke-width="4"/>
<rect id="Rectangle 88" width="17.1193" height="2.25643" transform="matrix(0.416207 -0.910397 0.912478 0.406664 69.7115 93.488)" fill="#4F4F4F"/>
</g>
<ellipse id="Head" cx="107.983" cy="40.1891" rx="8.6594" ry="8.54979" fill="#4F4F4F"/>
<path id="Body" d="M77.1105 78.8489L75.981 77.362L77.1105 70.6708L80.1225 64.7232L82.758 60.2624L85.3934 56.5451L91.0409 51.7126L96.6883 49.1105L100.83 48.7388L103.465 49.854L104.595 52.4561L105.348 56.1734L104.595 59.5189L103.089 66.5818L102.712 74.0164V78.1054L103.089 79.9641L103.842 81.451L106.477 87.027L109.866 92.6029L112.878 102.64L114.76 113.792L115.137 117.509V119.739L114.007 121.598L112.125 123.456H109.113L106.854 122.341L104.971 118.996L103.842 110.446L101.583 101.153L97.8178 110.446L93.2999 116.022L89.1584 120.483L86.1464 123.456H83.1345L80.499 122.341L79.3695 120.483L78.993 117.509L80.1225 114.907L85.3934 110.074L89.1584 104.127L91.7939 97.0637L92.1704 89.6291L91.7939 84.7966L89.1584 81.8227L88.0289 78.8489L87.2759 71.786L88.0289 64.7232L85.3934 68.8122L81.6285 78.8489L80.1225 79.5924H78.24L77.1105 78.8489Z" fill="#4F4F4F"/>
<path id="Hand" d="M104.762 60.2373L104.77 60.273L104.783 60.3072L106.046 63.4996L106.078 63.579L106.134 63.6435L108.455 66.2979L108.493 66.3407L108.539 66.3741L111.117 68.2369L111.146 68.2578L111.177 68.2744L114.499 70.0234L114.595 70.0738L114.703 70.0808L118.126 70.301L119.925 70.7109L121.051 71.7967L121.578 75.1579L121.113 76.1471L120.266 76.9132L118.301 77.5533L113.037 76.9019L108.267 75.051L105.822 73.6001L103.666 71.7241L100.551 68.516L98.4315 64.4507L97.4454 60.5445L96.7809 56.3073L97.7716 54.1988L99.3317 53.6348L100.992 53.3809L102.015 53.8492L103.618 55.3019L104.762 60.2373Z" fill="#4F4F4F" stroke="#F2F2F2"/>
</g>
</g>
</svg>
