<svg width="128" height="128" viewBox="0 0 128 128" fill="none" xmlns="http://www.w3.org/2000/svg">
<g id="New_Application">
<g id="Clipboard">
<g id="Second_Bars">
<rect id="Rectangle 82" x="69" y="36.8948" width="11" height="5.13158" rx="2.56579" fill="#828282"/>
<rect id="Rectangle 84" x="69" y="52.2896" width="11" height="5.13158" rx="2.56579" fill="#828282"/>
<rect id="Rectangle 85" x="69" y="67.6842" width="11" height="5.13158" rx="2.56579" fill="#828282"/>
</g>
<g id="First_Bars">
<rect id="Rectangle 82_2" x="19" y="36.8948" width="43" height="5.13158" rx="2.56579" fill="#828282"/>
<rect id="Rectangle 84_2" x="19" y="52.2896" width="43" height="5.13158" rx="2.56579" fill="#828282"/>
<rect id="Rectangle 85_2" x="19" y="67.6842" width="43" height="5.13158" rx="2.56579" fill="#828282"/>
<rect id="Rectangle 86" x="19" y="83.079" width="43" height="5.13158" rx="2.56579" fill="#828282"/>
</g>
<path id="Subtract" fill-rule="evenodd" clip-rule="evenodd" d="M63.395 11.75H83.25C88.475 11.75 92.75 16.1375 92.75 21.5V62.1533C91.0485 62.3147 89.3836 62.6014 87.7645 63.0042L87.5 17.3947H73.75V26.6316H26.25V17.3947H13V103.605H62.8538C63.2996 105.556 63.9132 107.443 64.6785 109.25H16.75C11.525 109.25 7.25 104.863 7.25 99.5V21.5C7.25 16.1375 11.525 11.75 16.75 11.75H36.605C38.6 6.095 43.825 2 50 2C56.175 2 61.4 6.095 63.395 11.75ZM54.75 16.625C54.75 13.9438 52.6125 11.75 50 11.75C47.3875 11.75 45.25 13.9438 45.25 16.625C45.25 19.3063 47.3875 21.5 50 21.5C52.6125 21.5 54.75 19.3063 54.75 16.625Z" fill="#4F4F4F"/>
</g>
<g id="Plus_Border_Circle">
<path id="Subtract_2" fill-rule="evenodd" clip-rule="evenodd" d="M96 128C113.673 128 128 113.673 128 96C128 78.3269 113.673 64 96 64C78.3269 64 64 78.3269 64 96C64 113.673 78.3269 128 96 128ZM96 121.379C110.017 121.379 121.379 110.017 121.379 96C121.379 81.9834 110.017 70.6207 96 70.6207C81.9834 70.6207 70.6207 81.9834 70.6207 96C70.6207 110.017 81.9834 121.379 96 121.379Z" fill="#2F80ED"/>
</g>
<g id="Plus_Sign">
<g id="Rectangle 118">
<rect x="93" y="80" width="6" height="30" rx="3" fill="#2F80ED"/>
<rect x="93" y="80" width="6" height="30" rx="3" fill="#2F80ED"/>
</g>
<g id="Rectangle 119">
<rect x="112" y="93" width="6" height="30" rx="3" transform="rotate(90 112 93)" fill="#2F80ED"/>
<rect x="112" y="93" width="6" height="30" rx="3" transform="rotate(90 112 93)" fill="#2F80ED"/>
</g>
</g>
<path id="Clipboard Head" fill-rule="evenodd" clip-rule="evenodd" d="M36.3704 11.9473C38.1351 5.6293 43.8715 1 50.6757 1C57.4798 1 63.2163 5.6293 64.981 11.9473H75V26.9999H25V11.9473H36.3704ZM47.1516 12.9128C46.0088 13.7871 45.2702 15.1746 45.2702 16.7367C45.2702 19.3819 47.3878 21.5262 50 21.5262C52.6121 21.5262 54.7297 19.3819 54.7297 16.7367C54.7297 14.2908 52.9191 12.2731 50.5811 11.9831C49.4092 12.0905 48.2596 12.4333 47.1516 12.9128Z" fill="#2F80ED"/>
</g>
</svg>
