<svg width="128" height="128" viewBox="0 0 128 128" fill="none" xmlns="http://www.w3.org/2000/svg">
<g clip-path="url(#clip0_306_30)">
<path d="M74.75 10.5H56.985C55.2 5.57 50.525 2 45 2C39.475 2 34.8 5.57 33.015 10.5H15.25C10.575 10.5 6.75 14.325 6.75 19V87C6.75 91.675 10.575 95.5 15.25 95.5H74.75C79.425 95.5 83.25 91.675 83.25 87V19C83.25 14.325 79.425 10.5 74.75 10.5ZM45 10.5C47.3375 10.5 49.25 12.4125 49.25 14.75C49.25 17.0875 47.3375 19 45 19C42.6625 19 40.75 17.0875 40.75 14.75C40.75 12.4125 42.6625 10.5 45 10.5ZM74.75 87H15.25V19H23.75V31.75H66.25V19H74.75V87Z" fill="#4F4F4F"/>
<rect x="23.0172" y="36.2931" width="43.9655" height="4.39655" rx="2.19827" fill="#828282"/>
<rect x="23.0172" y="44.2069" width="43.9655" height="4.39655" rx="2.19828" fill="#828282"/>
<rect x="23.0172" y="52.1207" width="43.9655" height="4.39655" rx="2.19827" fill="#828282"/>
<rect x="23.0172" y="60.0345" width="43.9655" height="4.39655" rx="2.19828" fill="#828282"/>
<rect x="23.0172" y="67.9482" width="43.9655" height="4.39656" rx="2.19828" fill="#828282"/>
<circle cx="87.5" cy="81.5" r="35.5" fill="#CECECE"/>
<path d="M100.178 67.7581C98.102 54.9752 93.2055 46 87.5072 46C81.8088 46 76.9123 54.9752 74.8363 67.7581H100.178ZM73.7625 81.5C73.7625 84.6778 73.9343 87.7268 74.2349 90.6613H100.765C101.066 87.7268 101.238 84.6778 101.238 81.5C101.238 78.3222 101.066 75.2732 100.765 72.3387H74.2349C73.9343 75.2732 73.7625 78.3222 73.7625 81.5ZM120.251 67.7581C116.156 58.0385 107.867 50.5234 97.6296 47.4887C101.123 52.327 103.528 59.6131 104.788 67.7581H120.251ZM77.3704 47.4887C67.1478 50.5234 58.8437 58.0385 54.7633 67.7581H70.2261C71.4717 59.6131 73.877 52.327 77.3704 47.4887V47.4887ZM121.783 72.3387H105.361C105.662 75.3448 105.833 78.4224 105.833 81.5C105.833 84.5776 105.662 87.6552 105.361 90.6613H121.769C122.556 87.7268 123 84.6778 123 81.5C123 78.3222 122.556 75.2732 121.783 72.3387ZM69.1809 81.5C69.1809 78.4224 69.3527 75.3448 69.6534 72.3387H53.2313C52.4582 75.2732 52 78.3222 52 81.5C52 84.6778 52.4582 87.7268 53.2313 90.6613H69.639C69.3527 87.6552 69.1809 84.5776 69.1809 81.5V81.5ZM74.8363 95.2419C76.9123 108.025 81.8088 117 87.5072 117C93.2055 117 98.102 108.025 100.178 95.2419H74.8363ZM97.6439 115.511C107.867 112.477 116.171 104.961 120.265 95.2419H104.803C103.543 103.387 101.137 110.673 97.6439 115.511ZM54.7633 95.2419C58.858 104.961 67.1478 112.477 77.3848 115.511C73.8913 110.673 71.486 103.387 70.2261 95.2419H54.7633V95.2419Z" fill="#2F80ED"/>
<path d="M89.3043 82C91.2731 82 92.9565 83.7343 92.9565 85.7625V94.1484C94.3772 92.7761 97.1037 92.6076 98.8685 94.6774C100.771 93.4775 103.287 94.4971 104.061 96.059C108.157 95.3053 110 97.9021 110 102.156C110 102.387 109.983 103.271 109.984 103.5C109.998 108.705 107.395 109.958 106.791 113.891C106.64 114.872 105.8 115.594 104.816 115.594H90.5218L90.5217 115.594C88.9912 115.593 87.5309 114.703 86.8679 113.203C85.7851 110.777 82.7814 105.19 80.4243 104.172C78.9081 103.517 78.0007 102.376 78 100.812C77.9988 97.9384 80.9248 95.9622 83.5757 97.1072C84.2723 97.4081 84.9648 97.8053 85.6522 98.2958V85.7625C85.6522 83.7931 87.3641 82 89.3043 82ZM89.3333 116.938H105.333C106.438 116.938 107.333 117.84 107.333 118.953V122.984C107.333 124.098 106.438 125 105.333 125H89.3333C88.2288 125 87.3333 124.098 87.3333 122.984V118.953C87.3333 117.84 88.2288 116.938 89.3333 116.938ZM103.333 119.289C102.413 119.289 101.667 120.041 101.667 120.969C101.667 121.896 102.413 122.648 103.333 122.648C104.254 122.648 105 121.896 105 120.969C105 120.041 104.254 119.289 103.333 119.289Z" fill="#4F4F4F"/>
</g>
<defs>
<clipPath id="clip0_306_30">
<rect width="128" height="128" fill="white"/>
</clipPath>
</defs>
</svg>
