<svg width="128" height="128" viewBox="0 0 128 128" fill="none" xmlns="http://www.w3.org/2000/svg">
<g id="Online_Apply_List" clip-path="url(#clip0_206:66)">
<g id="Clipboard">
<g id="Group 13">
<path id="Vector" d="M78.1667 8.33333H60.75C59 3.5 54.4167 0 49 0C43.5833 0 39 3.5 37.25 8.33333H19.8333C15.25 8.33333 11.5 12.0833 11.5 16.6667V83.3333C11.5 87.9167 15.25 91.6667 19.8333 91.6667H78.1667C82.75 91.6667 86.5 87.9167 86.5 83.3333V16.6667C86.5 12.0833 82.75 8.33333 78.1667 8.33333ZM49 8.33333C51.2917 8.33333 53.1667 10.2083 53.1667 12.5C53.1667 14.7917 51.2917 16.6667 49 16.6667C46.7083 16.6667 44.8333 14.7917 44.8333 12.5C44.8333 10.2083 46.7083 8.33333 49 8.33333ZM78.1667 83.3333H19.8333V16.6667H28.1667V29.1667H69.8333V16.6667H78.1667V83.3333Z" fill="#4F4F4F"/>
<g id="Bars">
<rect id="Rectangle 82" x="27.4483" y="33.6207" width="43.1034" height="4.31034" rx="2.15517" fill="#828282"/>
<rect id="Rectangle 83" x="27.4483" y="41.3793" width="43.1034" height="4.31034" rx="2.15517" fill="#828282"/>
<rect id="Rectangle 84" x="27.4483" y="49.1379" width="43.1034" height="4.31034" rx="2.15517" fill="#828282"/>
<rect id="Rectangle 85" x="27.4483" y="56.8965" width="43.1034" height="4.31034" rx="2.15517" fill="#828282"/>
<rect id="Rectangle 86" x="27.4483" y="64.6552" width="43.1034" height="4.31035" rx="2.15517" fill="#828282"/>
</g>
</g>
</g>
<g id="Tick">
<circle id="Ellipse 2" cx="95" cy="96" r="35" fill="#FEFFFD"/>
<circle id="Ellipse 1" cx="95" cy="96" r="30.4348" fill="#75A148"/>
<g id="Rectangle 9">
<rect x="85.7948" y="106.619" width="34.8536" height="7.6087" rx="3" transform="rotate(-46.1577 85.7948 106.619)" fill="#EFEDED"/>
<rect x="85.7948" y="106.619" width="34.8536" height="7.6087" rx="3" transform="rotate(-46.1577 85.7948 106.619)" fill="#EFEDED"/>
<rect x="85.7948" y="106.619" width="34.8536" height="7.6087" rx="3" transform="rotate(-46.1577 85.7948 106.619)" fill="#EFEDED"/>
<rect x="85.7948" y="106.619" width="34.8536" height="7.6087" rx="3" transform="rotate(-46.1577 85.7948 106.619)" fill="#EFEDED"/>
</g>
<g id="Rectangle 10">
<rect x="89.0927" y="109.846" width="20.337" height="7.6087" rx="3" transform="rotate(-139.209 89.0927 109.846)" fill="#EFEDED"/>
<rect x="89.0927" y="109.846" width="20.337" height="7.6087" rx="3" transform="rotate(-139.209 89.0927 109.846)" fill="#EFEDED"/>
<rect x="89.0927" y="109.846" width="20.337" height="7.6087" rx="3" transform="rotate(-139.209 89.0927 109.846)" fill="#EFEDED"/>
<rect x="89.0927" y="109.846" width="20.337" height="7.6087" rx="3" transform="rotate(-139.209 89.0927 109.846)" fill="#EFEDED"/>
</g>
</g>
</g>
<defs>
<clipPath id="clip0_206:66">
<rect width="128" height="128" fill="white"/>
</clipPath>
</defs>
</svg>
