<svg width="128" height="128" viewBox="0 0 128 128" fill="none" xmlns="http://www.w3.org/2000/svg">
<g clip-path="url(#clip0_322_22)">
<rect width="128" height="128" fill="#FD9B15"/>
<path d="M60.25 1.75H17.25C11.3375 1.75 6.55375 6.5875 6.55375 12.5L6.5 98.5C6.5 104.413 11.2837 109.25 17.1962 109.25H81.75C87.6625 109.25 92.5 104.413 92.5 98.5V34L60.25 1.75ZM71 87.75H28V77H71V87.75ZM71 66.25H28V55.5H71V66.25ZM54.875 39.375V9.8125L84.4375 39.375H54.875Z" fill="white"/>
<circle cx="92.5" cy="92.5002" r="30.8696" fill="#0F7CB9"/>
<path d="M92.5 62.5953C75.9799 62.5953 62.5951 75.9802 62.5951 92.5002C62.5951 109.02 75.9799 122.405 92.5 122.405C109.02 122.405 122.405 109.02 122.405 92.5002C122.405 75.9802 109.02 62.5953 92.5 62.5953ZM92.5 116.617C79.1754 116.617 68.3831 105.825 68.3831 92.5002C68.3831 79.1757 79.1754 68.3834 92.5 68.3834C105.825 68.3834 116.617 79.1757 116.617 92.5002C116.617 105.825 105.825 116.617 92.5 116.617ZM99.9521 104.028L89.7145 96.588C89.3407 96.3107 89.1236 95.8766 89.1236 95.4184V75.6184C89.1236 74.8226 89.7748 74.1714 90.5706 74.1714H94.4293C95.2252 74.1714 95.8763 74.8226 95.8763 75.6184V92.7052L103.931 98.5656C104.583 99.0359 104.715 99.9403 104.245 100.591L101.978 103.715C101.508 104.354 100.603 104.498 99.9521 104.028Z" fill="white"/>
</g>
<defs>
<clipPath id="clip0_322_22">
<rect width="128" height="128" fill="white"/>
</clipPath>
</defs>
</svg>
