<svg width="128" height="128" viewBox="0 0 128 128" fill="none" xmlns="http://www.w3.org/2000/svg">
<g clip-path="url(#clip0_205_55)">
<path d="M60.25 1.75H17.25C11.3375 1.75 6.55375 6.5875 6.55375 12.5L6.5 98.5C6.5 104.413 11.2837 109.25 17.1962 109.25H81.75C87.6625 109.25 92.5 104.413 92.5 98.5V34L60.25 1.75ZM71 87.75H28V77H71V87.75ZM71 66.25H28V55.5H71V66.25ZM54.875 39.375V9.8125L84.4375 39.375H54.875Z" fill="#4F4F4F"/>
<circle cx="92.5" cy="92.5" r="31.5" fill="#2D9CDB"/>
<g clip-path="url(#clip1_205_55)">
<path d="M93.1702 77.7554V85.4628L103.447 75.1862L93.1702 64.9096V72.6171C81.8145 72.6171 72.617 81.8146 72.617 93.1702C72.617 97.2038 73.7988 100.955 75.8027 104.115L79.5537 100.364C78.3976 98.2315 77.7553 95.7651 77.7553 93.1702C77.7553 84.6664 84.6663 77.7554 93.1702 77.7554ZM110.538 82.2257L106.787 85.9766C107.917 88.1347 108.585 90.5754 108.585 93.1702C108.585 101.674 101.674 108.585 93.1702 108.585V100.878L82.8936 111.154L93.1702 121.431V113.723C104.526 113.723 113.723 104.526 113.723 93.1702C113.723 89.1367 112.542 85.3857 110.538 82.2257V82.2257Z" fill="#F2F2F2"/>
</g>
</g>
<defs>
<clipPath id="clip0_205_55">
<rect width="128" height="128" fill="white"/>
</clipPath>
<clipPath id="clip1_205_55">
<rect width="61.6596" height="61.6596" fill="white" transform="translate(62.3404 62.3405)"/>
</clipPath>
</defs>
</svg>
