<svg width="128" height="128" viewBox="0 0 128 128" fill="none" xmlns="http://www.w3.org/2000/svg">
<g id="Search_Application">
<g id="Clipboard">
<g id="Second_Bars">
<rect id="Rectangle 82" x="68.75" y="36.8948" width="11" height="5.13158" rx="2.56579" fill="#828282"/>
<rect id="Rectangle 84" x="68.75" y="52.2896" width="11" height="5.13158" rx="2.56579" fill="#828282"/>
<rect id="Rectangle 85" x="68.75" y="67.6842" width="11" height="5.13158" rx="2.56579" fill="#828282"/>
</g>
<g id="First_Bars">
<rect id="Rectangle 82_2" x="18.75" y="36.8948" width="43" height="5.13158" rx="2.56579" fill="#828282"/>
<rect id="Rectangle 84_2" x="18.75" y="52.2896" width="43" height="5.13158" rx="2.56579" fill="#828282"/>
<rect id="Rectangle 85_2" x="18.75" y="67.6842" width="43" height="5.13158" rx="2.56579" fill="#828282"/>
<rect id="Rectangle 86" x="18.75" y="83.079" width="43" height="5.13158" rx="2.56579" fill="#828282"/>
</g>
<path id="Subtract" fill-rule="evenodd" clip-rule="evenodd" d="M63.145 11.75H83C88.225 11.75 92.5 16.1375 92.5 21.5V62.1533C90.7985 62.3147 89.1336 62.6014 87.5145 63.0042L87.25 17.3947H73.5V26.6316H26V17.3947H12.75V103.605H62.6038C63.0496 105.556 63.6632 107.443 64.4285 109.25H16.5C11.275 109.25 7 104.863 7 99.5V21.5C7 16.1375 11.275 11.75 16.5 11.75H36.355C38.35 6.095 43.575 2 49.75 2C55.925 2 61.15 6.095 63.145 11.75ZM54.5 16.625C54.5 13.9438 52.3625 11.75 49.75 11.75C47.1375 11.75 45 13.9438 45 16.625C45 19.3063 47.1375 21.5 49.75 21.5C52.3625 21.5 54.5 19.3063 54.5 16.625Z" fill="#4F4F4F"/>
</g>
<g id="Plus_Border_Circle">
<path id="Subtract_2" fill-rule="evenodd" clip-rule="evenodd" d="M96 128C113.673 128 128 113.673 128 96C128 78.3269 113.673 64 96 64C78.3269 64 64 78.3269 64 96C64 113.673 78.3269 128 96 128ZM96 121.379C110.017 121.379 121.379 110.017 121.379 96C121.379 81.9834 110.017 70.6207 96 70.6207C81.9834 70.6207 70.6207 81.9834 70.6207 96C70.6207 110.017 81.9834 121.379 96 121.379Z" fill="#4F4F4F"/>
</g>
<path id="Search_Icon" d="M113.524 108.26L106.708 101.445C106.4 101.137 105.983 100.967 105.546 100.967H104.432C106.318 98.5537 107.44 95.5188 107.44 92.2174C107.44 84.3636 101.075 78 93.2198 78C85.3647 78 79 84.3636 79 92.2174C79 100.071 85.3647 106.435 93.2198 106.435C96.5218 106.435 99.5572 105.314 101.97 103.427V104.541C101.97 104.979 102.141 105.396 102.449 105.703L109.265 112.518C109.908 113.161 110.947 113.161 111.582 112.518L113.517 110.584C114.16 109.941 114.16 108.902 113.524 108.26ZM93.2198 100.967C88.3864 100.967 84.4692 97.0567 84.4692 92.2174C84.4692 87.3848 88.3796 83.4682 93.2198 83.4682C98.0532 83.4682 101.97 87.378 101.97 92.2174C101.97 97.0499 98.06 100.967 93.2198 100.967Z" fill="#4F4F4F"/>
<path id="Clipboard Head" fill-rule="evenodd" clip-rule="evenodd" d="M36.143 11.9473C37.8724 5.6293 43.4941 1 50.1622 1C56.8302 1 62.4519 5.6293 64.1814 11.9473H74V26.9999H25V11.9473H36.143ZM46.7086 12.9128C45.5886 13.7871 44.8648 15.1746 44.8648 16.7367C44.8648 19.3819 46.9401 21.5262 49.5 21.5262C52.0599 21.5262 54.1351 19.3819 54.1351 16.7367C54.1351 14.2908 52.3607 12.2731 50.0694 11.9831C48.921 12.0905 47.7944 12.4333 46.7086 12.9128Z" fill="#2F80ED"/>
<path id="Clipboard Head_2" fill-rule="evenodd" clip-rule="evenodd" d="M36.143 11.9473C37.8724 5.6293 43.4941 1 50.1622 1C56.8302 1 62.4519 5.6293 64.1814 11.9473H74V26.9999H25V11.9473H36.143ZM46.7086 12.9128C45.5886 13.7871 44.8648 15.1746 44.8648 16.7367C44.8648 19.3819 46.9401 21.5262 49.5 21.5262C52.0599 21.5262 54.1351 19.3819 54.1351 16.7367C54.1351 14.2908 52.3607 12.2731 50.0694 11.9831C48.921 12.0905 47.7944 12.4333 46.7086 12.9128Z" fill="#2F80ED"/>
</g>
</svg>
