<svg width="128" height="128" viewBox="0 0 128 128" fill="none" xmlns="http://www.w3.org/2000/svg">
<g id="Settings">
<g id="Settings_2">
<g id="Group">
<path id="Vector" d="M102.08 69.0134C102.293 67.4134 102.4 65.7601 102.4 64.0001C102.4 62.2934 102.293 60.5868 102.027 58.9868L112.853 50.5601C113.813 49.8134 114.08 48.3734 113.493 47.3068L103.253 29.6001C102.613 28.4268 101.28 28.0534 100.107 28.4268L87.36 33.5468C84.6933 31.5201 81.8666 29.8134 78.72 28.5334L76.8 14.9868C76.5866 13.7068 75.52 12.8001 74.24 12.8001H53.76C52.48 12.8001 51.4666 13.7068 51.2533 14.9868L49.3333 28.5334C46.1866 29.8134 43.3066 31.5734 40.6933 33.5468L27.9466 28.4268C26.7733 28.0001 25.44 28.4268 24.8 29.6001L14.6133 47.3068C13.9733 48.4268 14.1866 49.8134 15.2533 50.5601L26.08 58.9868C25.8133 60.5868 25.6 62.3468 25.6 64.0001C25.6 65.6534 25.7066 67.4134 25.9733 69.0134L15.1466 77.4401C14.1866 78.1868 13.9199 79.6268 14.5066 80.6934L24.7466 98.4001C25.3866 99.5735 26.72 99.9468 27.8933 99.5734L40.64 94.4534C43.3066 96.4801 46.1333 98.1868 49.28 99.4668L51.2 113.013C51.4666 114.293 52.48 115.2 53.76 115.2H74.24C75.52 115.2 76.5866 114.293 76.7466 113.013L78.6666 99.4668C81.8133 98.1868 84.6933 96.4801 87.3066 94.4534L100.053 99.5734C101.227 100 102.56 99.5735 103.2 98.4001L113.44 80.6934C114.08 79.5201 113.813 78.1868 112.8 77.4401L102.08 69.0134ZM64 83.2001C53.44 83.2001 44.8 74.5601 44.8 64.0001C44.8 53.4401 53.44 44.8001 64 44.8001C74.56 44.8001 83.2 53.4401 83.2 64.0001C83.2 74.5601 74.56 83.2001 64 83.2001Z" fill="#4F4F4F"/>
</g>
</g>
</g>
</svg>
