<svg width="128" height="128" viewBox="0 0 128 128" fill="none" xmlns="http://www.w3.org/2000/svg">
<g clip-path="url(#clip0_204_9)">
<path d="M61.25 1.75H18.25C12.3375 1.75 7.55375 6.5875 7.55375 12.5L7.5 98.5C7.5 104.413 12.2837 109.25 18.1962 109.25H82.75C88.6625 109.25 93.5 104.413 93.5 98.5V34L61.25 1.75ZM72 87.75H29V77H72V87.75ZM72 66.25H29V55.5H72V66.25ZM55.875 39.375V9.8125L85.4375 39.375H55.875Z" fill="#4F4F4F"/>
<path d="M87.3429 89.9899H110.657L115.32 128.39L99 116.39L82.68 128.39L87.3429 89.9899Z" fill="#2F80ED"/>
<path d="M82.2 63.7129H115.8V97.3129H82.2V63.7129Z" fill="#FED557"/>
<path d="M98.976 56.5128C85.728 56.5128 75 67.2648 75 80.5128C75 93.7608 85.728 104.513 98.976 104.513C112.248 104.513 123 93.7608 123 80.5128C123 67.2648 112.248 56.5128 98.976 56.5128ZM109.152 94.9128L99 88.7928L88.848 94.9128L91.536 83.3688L82.584 75.6168L94.392 74.6088L99 63.7128L103.608 74.5848L115.416 75.5928L106.464 83.3448L109.152 94.9128Z" fill="#EB5757"/>
</g>
<defs>
<clipPath id="clip0_204_9">
<rect width="128" height="128" fill="white"/>
</clipPath>
</defs>
</svg>
