<svg width="128" height="128" viewBox="0 0 128 128" fill="none" xmlns="http://www.w3.org/2000/svg">
<g clip-path="url(#clip0_204_25)">
<path d="M60.25 1.75H17.25C11.3375 1.75 6.55375 6.5875 6.55375 12.5L6.5 98.5C6.5 104.413 11.2837 109.25 17.1962 109.25H81.75C87.6625 109.25 92.5 104.413 92.5 98.5V34L60.25 1.75ZM71 87.75H28V77H71V87.75ZM71 66.25H28V55.5H71V66.25ZM54.875 39.375V9.8125L84.4375 39.375H54.875Z" fill="#4F4F4F"/>
<circle cx="92.5" cy="92.5" r="35.5" fill="#FEFFFD"/>
<circle cx="92.5" cy="92.5001" r="30.8696" fill="#D37B2C"/>
<path d="M92.5 62.5952C75.98 62.5952 62.5951 75.9801 62.5951 92.5001C62.5951 109.02 75.98 122.405 92.5 122.405C109.02 122.405 122.405 109.02 122.405 92.5001C122.405 75.9801 109.02 62.5952 92.5 62.5952ZM92.5 116.617C79.1755 116.617 68.3832 105.825 68.3832 92.5001C68.3832 79.1755 79.1755 68.3833 92.5 68.3833C105.825 68.3833 116.617 79.1755 116.617 92.5001C116.617 105.825 105.825 116.617 92.5 116.617ZM99.9521 104.028L89.7145 96.5879C89.3407 96.3106 89.1237 95.8765 89.1237 95.4182V75.6183C89.1237 74.8225 89.7748 74.1713 90.5707 74.1713H94.4294C95.2252 74.1713 95.8764 74.8225 95.8764 75.6183V92.7051L103.931 98.5655C104.583 99.0358 104.715 99.9402 104.245 100.591L101.978 103.714C101.508 104.354 100.603 104.498 99.9521 104.028Z" fill="white"/>
</g>
<defs>
<clipPath id="clip0_204_25">
<rect width="128" height="128" fill="white"/>
</clipPath>
</defs>
</svg>
