<svg width="128" height="128" viewBox="0 0 128 128" fill="none" xmlns="http://www.w3.org/2000/svg">
<g clip-path="url(#clip0_206_22)">
<path d="M60.25 1.75H17.25C11.3375 1.75 6.55375 6.5875 6.55375 12.5L6.5 98.5C6.5 104.413 11.2837 109.25 17.1962 109.25H81.75C87.6625 109.25 92.5 104.413 92.5 98.5V34L60.25 1.75ZM71 87.75H28V77H71V87.75ZM71 66.25H28V55.5H71V66.25ZM54.875 39.375V9.8125L84.4375 39.375H54.875Z" fill="#4F4F4F"/>
<rect x="55.0418" y="85.7947" width="26.7888" height="30.5094" rx="5" transform="rotate(24.2936 55.0418 85.7947)" fill="#2F80ED"/>
<circle cx="64.2994" cy="120.864" r="3.581" transform="rotate(9.29362 64.2994 120.864)" fill="#F2F2F2" stroke="#2F80ED" stroke-width="4"/>
<rect x="71.3502" y="93.9048" width="17.1151" height="2.2324" transform="rotate(-65.7064 71.3502 93.9048)" fill="#2F80ED"/>
<ellipse cx="109" cy="40.5" rx="9" ry="8.5" fill="#2F80ED"/>
<path d="M78.1538 79.2239L77 77.7313L78.1538 71.0149L81.2307 65.0448L83.923 60.5672L86.6154 56.8358L92.3846 51.9851L98.1538 49.3731L102.385 49L105.077 50.1194L106.231 52.7313L107 56.4627L106.231 59.8209L104.692 66.9104L104.308 74.3731V78.4776L104.692 80.3433L105.462 81.8358L108.154 87.4328L111.615 93.0299L114.692 103.104L116.615 114.299L117 118.03V120.269L115.846 122.134L113.923 124H110.846L108.538 122.881L106.615 119.522L105.462 110.94L103.154 101.612L99.3077 110.94L94.6923 116.537L90.4615 121.015L87.3846 124H84.3077L81.6154 122.881L80.4615 121.015L80.0769 118.03L81.2307 115.418L86.6154 110.567L90.4615 104.597L93.1538 97.5075L93.5384 90.0448L93.1538 85.194L90.4615 82.209L89.3077 79.2239L88.5384 72.1343L89.3077 65.0448L86.6154 69.1493L82.7692 79.2239L81.2307 79.9701H79.3077L78.1538 79.2239Z" fill="#2F80ED"/>
<path d="M109.636 66.6919L109.673 66.735L109.719 66.7686L112.267 68.6331L112.295 68.6541L112.327 68.6708L115.61 70.4215L115.705 70.4722L115.813 70.4792L119.195 70.6995L120.971 71.1096L122.083 72.1951L122.603 75.5577L122.145 76.5465L121.308 77.3127L119.368 77.9529L114.167 77.3011L109.453 75.4487L107.037 73.9968L104.907 72.1193L101.829 68.9087L99.7349 64.8404L98.7604 60.9312L98.1039 56.691L99.0822 54.5823L100.623 54.0182L102.263 53.7643L103.272 54.2325L104.855 55.6855L105.985 60.6245L105.994 60.6605L106.007 60.6948L107.255 63.8901L107.286 63.9701L107.342 64.035L109.636 66.6919Z" fill="#2F80ED" stroke="#F2F2F2"/>
</g>
<defs>
<clipPath id="clip0_206_22">
<rect width="128" height="128" fill="white"/>
</clipPath>
</defs>
</svg>
